<?xml version="1.0" encoding="UTF-8"?>
<svg id="headerLogoGazprom" width="124" height="61" viewBox="0 0 124 61" fill="none" xmlns="http://www.w3.org/2000/svg">
  <g clip-path="url(#clip0_0_7)">
    <path d="M33.7 11.01C32.6693 7.08627 30.9786 3.36652 28.7 0.0100098C26.7221 2.98453 25.1736 6.22308 24.1 9.63001C22.7818 14.1313 22.3905 18.8532 22.95 23.51C23.3708 26.5564 24.1565 29.5412 25.29 32.4C26.2004 34.5715 27.3509 36.6343 28.72 38.55C31.7168 34.2529 33.6561 29.3086 34.38 24.12C35.0357 19.751 34.7975 15.2943 33.68 11.02L33.7 11.01ZM28.68 37.14C27.5628 34.9749 26.9734 32.5763 26.96 30.14C26.9616 27.7253 27.5593 25.3483 28.7 23.22C29.7631 25.2717 30.3638 27.5313 30.46 29.84C30.5247 32.3741 29.9431 34.8829 28.77 37.13L28.68 37.14ZM33.37 20.61C33.3386 22.5586 33.1277 24.5001 32.74 26.41C32.8171 23.6453 32.5789 20.8808 32.03 18.17C31.3363 15.0696 30.2298 12.0762 28.74 9.27001C27.2574 12.0678 26.1544 15.0507 25.46 18.14C24.9236 20.8869 24.669 23.6814 24.7 26.48C24.2561 23.8108 24.0752 21.1045 24.16 18.4C24.2981 15.9257 24.6935 13.4724 25.34 11.08C26.1606 8.29879 27.284 5.61605 28.69 3.08001C30.1376 5.56093 31.2824 8.20648 32.1 10.96C32.9507 14.1048 33.3612 17.3524 33.32 20.61" fill="#0072BB"/>
    <path d="M30.9156 39.86H21.0956V46.45C21.6286 45.8344 22.2827 45.3351 23.0171 44.9833C23.7515 44.6314 24.5504 44.4347 25.3642 44.4052C26.178 44.3757 26.9891 44.5141 27.747 44.8118C28.505 45.1095 29.1935 45.5602 29.7696 46.1356C30.3458 46.7111 30.7972 47.399 31.0959 48.1566C31.3945 48.9142 31.5339 49.7252 31.5053 50.539C31.4768 51.3528 31.281 52.152 30.9301 52.8868C30.5792 53.6216 30.0806 54.2763 29.4656 54.81V54.81C27.3801 56.8758 24.6015 58.0932 21.6691 58.226C18.7367 58.3588 15.8595 57.3975 13.5958 55.5287C11.332 53.66 9.84323 51.0169 9.41821 48.1124C8.99319 45.2079 9.66224 42.2491 11.2956 39.81C11.7193 39.1736 12.205 38.5807 12.7456 38.04C13.846 36.9402 15.1526 36.0684 16.5907 35.4746C18.0287 34.8809 19.5698 34.5769 21.1256 34.58V18.78C17.6279 18.7725 14.1832 19.6354 11.1021 21.291C8.02101 22.9466 5.40029 25.3428 3.47616 28.2638C1.55204 31.1847 0.385001 34.5386 0.0801987 38.023C-0.224604 41.5074 0.342404 45.013 1.73016 48.2236C3.11792 51.4343 5.2828 54.2492 8.02966 56.4146C10.7765 58.58 14.019 60.0278 17.465 60.6277C20.9109 61.2275 24.4519 60.9605 27.7689 59.8506C31.0859 58.7407 34.0746 56.8229 36.4656 54.27V39.86H30.9156Z" fill="#0072BB"/>
    <path d="M38.98 18.78H47.01V21.39H43.19V39.85H38.98V18.78Z" fill="#0072BB"/>
    <path d="M51.56 31.96L52.29 21.41H52.53L53.25 31.96H51.56ZM46.9 39.87H51.02L51.41 34.27H53.41L53.8 39.87H57.93L55.73 18.8H49.1L46.9 39.87Z" fill="#0072BB"/>
    <path d="M63.46 32.48V36.48C63.453 36.5703 63.465 36.6611 63.4951 36.7465C63.5253 36.8319 63.573 36.9101 63.6351 36.976C63.6973 37.0419 63.7725 37.0941 63.856 37.1293C63.9395 37.1644 64.0294 37.1817 64.12 37.18C64.2097 37.1788 64.2983 37.1595 64.3804 37.1234C64.4625 37.0873 64.5366 37.035 64.5981 36.9697C64.6597 36.9044 64.7075 36.8274 64.7388 36.7433C64.77 36.6592 64.784 36.5696 64.78 36.48V31.58C64.78 30.92 64.66 30.2 63.09 30.2H61.38V27.84H63.15C64.36 27.84 64.78 27.57 64.78 26.27V22.08C64.7827 21.9912 64.7676 21.9027 64.7358 21.8198C64.7039 21.7368 64.6559 21.661 64.5945 21.5968C64.533 21.5326 64.4594 21.4813 64.378 21.4458C64.2965 21.4102 64.2088 21.3913 64.12 21.39C64.0303 21.3885 63.9413 21.4055 63.8585 21.44C63.7757 21.4745 63.701 21.5258 63.639 21.5906C63.577 21.6554 63.5291 21.7324 63.4983 21.8166C63.4675 21.9008 63.4545 21.9905 63.46 22.08V25.52H59.24V22.52C59.24 21.05 59.42 18.76 62.37 18.76H65.87C68.82 18.76 69 21.05 69 22.52V25.96C69.0429 26.346 68.9984 26.7367 68.8698 27.1032C68.7412 27.4697 68.5318 27.8026 68.2572 28.0772C67.9826 28.3519 67.6497 28.5612 67.2832 28.6898C66.9167 28.8184 66.526 28.8629 66.14 28.82V28.96C66.5292 28.9006 66.9269 28.9336 67.3011 29.0563C67.6752 29.179 68.0152 29.388 68.2936 29.6664C68.572 29.9448 68.781 30.2848 68.9037 30.6589C69.0264 31.0331 69.0594 31.4308 69 31.82V36.07C69 37.54 68.82 39.83 65.87 39.83H62.37C59.37 39.83 59.24 37.54 59.24 36.07V32.48H63.46Z" fill="#0072BB"/>
    <path d="M71.21 18.78H80.97V39.85H76.76V21.39H75.43V39.85H71.21V18.78Z" fill="#0072BB"/>
    <path d="M87.65 30.37V21.37H88.19C88.64 21.37 88.97 21.76 88.97 22.37V29.25C88.97 29.91 88.64 30.25 88.19 30.25L87.65 30.37ZM83.46 39.85H87.68V32.69H90.09C93.04 32.69 93.22 30.4 93.22 28.92V22.54C93.22 21.07 93.04 18.78 90.09 18.78H83.46V39.85Z" fill="#0072BB"/>
    <path d="M100.77 36.44C100.774 36.5297 100.76 36.6192 100.729 36.7033C100.698 36.7875 100.65 36.8644 100.588 36.9297C100.527 36.995 100.453 37.0473 100.37 37.0834C100.288 37.1195 100.2 37.1388 100.11 37.14C100.02 37.1402 99.9306 37.1219 99.8478 37.0863C99.765 37.0506 99.6904 36.9984 99.6286 36.9328C99.5667 36.8672 99.519 36.7897 99.4883 36.7049C99.4576 36.6202 99.4445 36.53 99.45 36.44V22.08C99.4444 21.9905 99.4575 21.9008 99.4883 21.8166C99.5191 21.7324 99.567 21.6554 99.629 21.5906C99.691 21.5258 99.7658 21.4745 99.8485 21.44C99.9313 21.4055 100.02 21.3885 100.11 21.39C100.199 21.3913 100.287 21.4103 100.368 21.4458C100.449 21.4813 100.523 21.5326 100.584 21.5968C100.646 21.6611 100.694 21.7368 100.726 21.8198C100.758 21.9028 100.773 21.9912 100.77 22.08V36.44ZM95.23 36.09C95.23 37.56 95.42 39.85 98.37 39.85H101.86C104.86 39.85 104.99 37.56 104.99 36.09V22.54C104.99 21.07 104.81 18.78 101.86 18.78H98.37C95.37 18.78 95.23 21.07 95.23 22.54V36.09Z" fill="#0072BB"/>
    <path d="M118.12 18.78H123.6V39.85H119.38V26.64H119.23L117.07 39.85H113.69L111.53 26.64H111.38V39.85H107.16V18.78H112.64L115.38 33.59L118.12 18.78Z" fill="#0072BB"/>
    <path d="M123.59 46.4H38.97V60.93H123.59V46.4Z" fill="#0072BB"/>
    <path d="M47.34 54.5V55.32C47.34 57.32 46.44 58.19 44.48 58.19C42.52 58.19 41.61 57.33 41.61 55.31V51.48C41.61 50.1 42.47 48.99 44.48 48.99C46.49 48.99 47.34 50.12 47.34 51.49V52.09H45.22V51.3C45.2149 51.2041 45.1909 51.1101 45.1494 51.0235C45.1079 50.9369 45.0497 50.8593 44.9782 50.7952C44.9067 50.7311 44.8232 50.6817 44.7325 50.6499C44.6419 50.6182 44.5459 50.6046 44.45 50.61C44.3592 50.6017 44.2678 50.6123 44.1813 50.6411C44.0949 50.6699 44.0153 50.7163 43.9477 50.7774C43.8801 50.8384 43.8258 50.9128 43.7883 50.9959C43.7509 51.079 43.731 51.1689 43.73 51.26V55.64C43.73 56.3 44.01 56.57 44.45 56.57C44.89 56.57 45.22 56.33 45.22 55.67V54.5H47.34Z" fill="white"/>
    <path d="M52.53 57.98H50.59V50.86H48.92V49.19H54.09V50.86H52.53V57.98Z" fill="white"/>
    <path d="M57.91 57.96H55.79V49.19H58.86C60.09 49.19 61.43 49.63 61.43 51.87C61.43 54.11 60.11 54.55 58.86 54.55H57.91V57.96ZM57.91 52.96H58.29C58.81 52.96 59.29 52.71 59.29 51.84C59.29 50.97 58.84 50.76 58.23 50.76H57.89L57.91 52.96Z" fill="white"/>
    <path d="M66.77 49.19L68.72 57.96H66.64L66.32 56.2H64.7L64.46 57.96H62.36L64.26 49.17L66.77 49.19ZM66.03 54.64L65.46 50.77L64.91 54.64H66.03Z" fill="white"/>
    <path d="M71.88 49.19L72.89 51.77L73.91 49.19H75.95L74.09 53.54L76.04 57.98H73.81L72.89 55.3L71.79 57.98H69.74L71.69 53.54L69.83 49.19H71.88Z" fill="white"/>
    <path d="M83.28 51.48V55.42C83.28 57.17 82.41 58.19 80.43 58.19C78.45 58.19 77.58 57.19 77.58 55.42V51.47C77.58 50.08 78.45 48.99 80.44 48.99C82.43 48.99 83.28 50.11 83.28 51.48V51.48ZM79.7 51.33V55.79C79.6916 55.8903 79.7043 55.9913 79.7374 56.0864C79.7704 56.1815 79.823 56.2686 79.8918 56.3421C79.9606 56.4156 80.044 56.4739 80.1367 56.5131C80.2294 56.5524 80.3293 56.5717 80.43 56.57C80.5306 56.5701 80.6302 56.5498 80.7227 56.5101C80.8152 56.4704 80.8987 56.4123 80.9679 56.3393C81.0372 56.2663 81.0908 56.1799 81.1256 56.0855C81.1603 55.991 81.1754 55.8905 81.17 55.79V51.33C81.1729 51.2329 81.1556 51.1363 81.1192 51.0463C81.0828 50.9563 81.0281 50.8748 80.9585 50.8071C80.8889 50.7394 80.8059 50.6869 80.715 50.653C80.624 50.619 80.5269 50.6044 80.43 50.61C80.3331 50.6027 80.2358 50.6162 80.1446 50.6496C80.0533 50.6831 79.9704 50.7357 79.9012 50.8039C79.832 50.8721 79.7783 50.9544 79.7436 51.0451C79.7089 51.1359 79.694 51.233 79.7 51.33" fill="white"/>
    <path d="M85.29 49.19H88.67C88.9618 49.1737 89.2538 49.2197 89.5265 49.3249C89.7991 49.4301 90.0463 49.5921 90.2516 49.8002C90.4568 50.0083 90.6154 50.2577 90.7169 50.5318C90.8183 50.8059 90.8603 51.0984 90.84 51.39C90.8812 51.7903 90.7848 52.1926 90.5666 52.5307C90.3485 52.8688 90.0216 53.1225 89.64 53.25C90.0623 53.4087 90.4186 53.7054 90.6509 54.0921C90.8833 54.4788 90.9781 54.9326 90.92 55.38C90.9603 55.7383 90.918 56.101 90.7963 56.4404C90.6747 56.7797 90.4768 57.0867 90.2181 57.3377C89.9593 57.5888 89.6465 57.7772 89.3036 57.8885C88.9607 57.9999 88.5969 58.0311 88.24 57.98H85.29V49.19ZM87.34 52.58H87.96C88.56 52.58 88.79 52.29 88.79 51.58C88.8073 51.4675 88.7978 51.3524 88.7621 51.2443C88.7263 51.1362 88.6655 51.038 88.5844 50.958C88.5034 50.878 88.4046 50.8183 88.2961 50.7839C88.1875 50.7495 88.0723 50.7413 87.96 50.76H87.34V52.58ZM87.34 56.4H87.81C88.61 56.4 88.81 56.09 88.81 55.3C88.81 54.51 88.58 54.16 87.81 54.16H87.29L87.34 56.4Z" fill="white"/>
    <path d="M96.81 49.19L98.76 57.96H96.68L96.36 56.2H94.74L94.46 57.96H92.36L94.27 49.17L96.81 49.19ZM96.08 54.64L95.51 50.77L94.96 54.64H96.08Z" fill="white"/>
    <path d="M102.42 52.58H103.8V49.19H105.92V57.98H103.8V54.25H102.42V57.98H100.3V49.19H102.42V52.58Z" fill="white"/>
    <path d="M110.03 49.19V51.37C110.03 52.37 109.76 53.74 109.71 54.71L111.49 49.19H113.49V57.96H111.49V55.96C111.49 54.96 111.79 53.58 111.89 52.65L110.07 57.96H108.01V49.19H110.03Z" fill="white"/>
    <path d="M115.63 49.19H120.55V50.86H117.75V52.58H120.25V54.25H117.75V56.32H120.55V57.98H115.63V49.19Z" fill="white"/>
  </g>
  <defs>
    <clipPath id="clip0_0_7">
      <rect width="123.6" height="60.94" fill="white"/>
    </clipPath>
  </defs>
</svg>

